<svg width="21" height="22" viewBox="0 0 21 22" fill="none" xmlns="http://www.w3.org/2000/svg">
<path fill-rule="evenodd" clip-rule="evenodd" d="M19.51 1.57996C18.9488 1.0233 18.1905 0.710648 17.4 0.709961C16.7152 0.712188 16.0518 0.948611 15.52 1.37996L6.15 8.99996L6 9.14996C4.69403 10.4447 4.40431 12.4483 5.29 14.06C4.92663 13.9491 4.5498 13.8885 4.17 13.88C1.96086 13.88 0.169998 15.6708 0.169998 17.88V20.38C0.169998 21.2084 0.841571 21.88 1.67 21.88H4.17C5.55861 21.8723 6.84391 21.1451 7.56554 19.9587C8.28716 18.7723 8.34185 17.2965 7.71 16.06C8.10967 16.1949 8.52818 16.2658 8.95 16.27C10.0575 16.2774 11.1212 15.8375 11.9 15.05L12 14.94L19.67 5.56996C20.6381 4.39247 20.5693 2.67615 19.51 1.57996ZM4.21 20.38H1.71V17.88C1.71 16.4992 2.82929 15.38 4.21 15.38C5.59071 15.38 6.71 16.4992 6.71 17.88C6.71 19.2607 5.59071 20.38 4.21 20.38ZM10.88 14L18.55 4.61996C19.0201 4.03105 18.9727 3.18291 18.4399 2.65006C17.907 2.11721 17.0589 2.06981 16.47 2.53996L7.1 10.21C6.05342 11.2538 6.05118 12.9484 7.095 13.995C8.13882 15.0415 9.83342 15.0438 10.88 14Z" fill="black"/>
<path d="M11.2 8.82996L8.2 11.83C7.90754 12.1228 7.90754 12.5971 8.2 12.89C8.49282 13.1824 8.96718 13.1824 9.26 12.89L12.26 9.88996C12.4607 9.70299 12.5432 9.42141 12.4754 9.15567C12.4075 8.88994 12.2 8.68244 11.9343 8.61458C11.6686 8.54671 11.387 8.62931 11.2 8.82996Z" fill="black"/>
</svg>
