<svg width="24" height="24" viewBox="0 0 24 24" fill="none" xmlns="http://www.w3.org/2000/svg">
<path fill-rule="evenodd" clip-rule="evenodd" d="M15 6.08002L20 13.46C20.1204 13.6586 20.1461 13.9006 20.07 14.12L18.47 18.99C18.3706 19.2986 18.0842 19.5084 17.76 19.51H17.65C17.5564 21.1619 16.1895 22.4535 14.535 22.4535C12.8805 22.4535 11.5136 21.1619 11.42 19.51H11.19C10.8685 19.5098 10.5829 19.3046 10.48 19L8.85 14.05C8.77859 13.831 8.81178 13.5914 8.94 13.4L13.75 6.09002C13.8869 5.88027 14.1195 5.75271 14.37 5.75002C14.6208 5.75232 14.8553 5.87512 15 6.08002ZM14.87 13.27C14.87 13.0602 14.6999 12.89 14.49 12.89H14.47C14.268 12.9007 14.1097 13.0677 14.11 13.27C14.11 13.4799 14.2801 13.65 14.49 13.65C14.6999 13.65 14.87 13.4799 14.87 13.27ZM14.53 21C13.684 20.9971 12.9827 20.3437 12.92 19.5H16.15C16.087 20.3476 15.3799 21.0024 14.53 21ZM11.74 18H17.22L18.53 14L15.15 9.00002V11.52C15.98 11.8427 16.4698 12.7034 16.3232 13.5818C16.1766 14.4602 15.4339 15.1152 14.544 15.1508C13.6542 15.1864 12.8615 14.5928 12.6452 13.7289C12.4289 12.865 12.8484 11.9679 13.65 11.58V9.00002L10.39 13.92L11.74 18Z" fill="black"/>
<path fill-rule="evenodd" clip-rule="evenodd" d="M7.61175 8.81081C7.71788 6.18489 9.87611 4.10416 12.51 4.10002C12.8114 4.76283 13.4719 5.1888 14.2 5.19002C15.1247 5.1928 15.9094 4.51241 16.0377 3.59667C16.1659 2.68094 15.5984 1.81112 14.7085 1.55972C13.8187 1.30832 12.8799 1.75255 12.51 2.60002H6.63C6.27601 1.807 5.41575 1.36945 4.56637 1.55042C3.717 1.73138 3.10979 2.48158 3.10979 3.35002C3.10979 4.21847 3.717 4.96867 4.56637 5.14963C5.41575 5.3306 6.27601 4.89305 6.63 4.10002H8.4C6.99403 5.26806 6.15656 6.98304 6.1 8.81002C5.30303 9.16629 4.86357 10.0312 5.04572 10.8849C5.22786 11.7387 5.98203 12.349 6.855 12.349C7.72797 12.349 8.48214 11.7387 8.66428 10.8849C8.84629 10.0318 8.40761 9.16755 7.61175 8.81081ZM14.54 3.35002C14.5401 3.16056 14.3894 3.00544 14.2 3.00002C14.0067 3.00002 13.85 3.15672 13.85 3.35002C13.8554 3.53941 14.0105 3.6901 14.2 3.69002C14.3878 3.69002 14.54 3.5378 14.54 3.35002ZM5 3.69002C4.90811 3.69273 4.81903 3.6581 4.75309 3.59405C4.68715 3.52999 4.64996 3.44196 4.65 3.35002C4.62654 3.21275 4.6867 3.07464 4.80319 2.99832C4.91967 2.922 5.07032 2.922 5.18681 2.99832C5.3033 3.07464 5.36345 3.21275 5.34 3.35002C5.34 3.4402 5.30418 3.52668 5.24042 3.59044C5.17665 3.6542 5.09017 3.69002 5 3.69002ZM6.4758 10.6416C6.52933 10.7736 6.65754 10.86 6.8 10.86C6.98946 10.8601 7.14459 10.7094 7.15 10.52C7.15407 10.3776 7.07142 10.247 6.94101 10.1896C6.8106 10.1323 6.65845 10.1597 6.55627 10.259C6.45408 10.3582 6.42226 10.5095 6.4758 10.6416Z" fill="black"/>
</svg>
