<svg width="13" height="18" viewBox="0 0 13 18" fill="none" xmlns="http://www.w3.org/2000/svg">
<path d="M7.02361 0.21934L12.7833 6.03934C13.0722 6.33216 13.0722 6.80652 12.7833 7.09934C12.6457 7.24229 12.4569 7.32291 12.2597 7.32291C12.0625 7.32291 11.8737 7.24229 11.7361 7.09934L7.24096 2.55934V13.7893C7.24096 14.2036 6.90922 14.5393 6.5 14.5393C6.09078 14.5393 5.75904 14.2036 5.75904 13.7893V2.55934L1.26391 7.09934C1.12636 7.24195 0.937192 7.32143 0.740304 7.31934C0.543638 7.32028 0.354892 7.24098 0.216695 7.09934C-0.0722317 6.80652 -0.0722317 6.33216 0.216695 6.03934L5.97639 0.21934C6.26568 -0.0731134 6.73432 -0.0731134 7.02361 0.21934Z" fill="black"/>
<path d="M1.5603 16.0793H11.4397C11.8489 16.0793 12.1807 16.4151 12.1807 16.8293C12.1807 17.2436 11.8489 17.5793 11.4397 17.5793H1.5603C1.15108 17.5793 0.819341 17.2436 0.819341 16.8293C0.819341 16.4151 1.15108 16.0793 1.5603 16.0793Z" fill="black"/>
</svg>
