<svg width="16" height="16" viewBox="0 0 16 16" fill="none" xmlns="http://www.w3.org/2000/svg">
<path d="M10.59 3.17995H3.5L5.15 1.52995C5.29294 1.39066 5.37357 1.19954 5.37357 0.99995C5.37357 0.800363 5.29294 0.609238 5.15 0.46995C4.85718 0.177497 4.38281 0.177497 4.09 0.46995L1.16 3.39995C1.09221 3.46931 1.03795 3.5507 0.999997 3.63995C0.930014 3.82351 0.930014 4.02639 0.999997 4.20995C1.03539 4.30349 1.08988 4.38863 1.16 4.45995L4.09 7.38995C4.23284 7.52712 4.422 7.60564 4.62 7.60995C4.81841 7.60765 5.00828 7.52883 5.15 7.38995C5.29294 7.25066 5.37357 7.05954 5.37357 6.85995C5.37357 6.66036 5.29294 6.46924 5.15 6.32995L3.5 4.67995H10.59C12.6335 4.67995 14.29 6.3365 14.29 8.37995V10.55C14.3019 12.5442 12.7232 14.185 10.73 14.25H2.83C2.41578 14.25 2.08 14.5857 2.08 15C2.08 15.4142 2.41578 15.75 2.83 15.75H10.76C13.5604 15.6579 15.7778 13.3518 15.76 10.55V8.37995C15.76 5.51974 13.4502 3.19645 10.59 3.17995Z" fill="black"/>
</svg>
