<svg width="16" height="16" viewBox="0 0 16 16" fill="none" xmlns="http://www.w3.org/2000/svg">
<path d="M11.58 7.39005C11.7228 7.52723 11.912 7.60574 12.11 7.61005C12.3084 7.60775 12.4983 7.52894 12.64 7.39005L15.57 4.46005C15.6401 4.38874 15.6946 4.30359 15.73 4.21005C15.8096 4.02839 15.8096 3.82171 15.73 3.64005C15.6921 3.5508 15.6378 3.46941 15.57 3.40005L12.64 0.470052C12.453 0.269399 12.1714 0.186803 11.9057 0.254666C11.64 0.32253 11.4325 0.530029 11.3646 0.795763C11.2968 1.0615 11.3793 1.34308 11.58 1.53005L13.23 3.18005H6.14C3.26812 3.18005 0.940002 5.50817 0.940002 8.38005V10.6601C0.95021 13.432 3.16863 15.6904 5.94 15.7501H13.12C13.3233 15.7554 13.5202 15.6791 13.6668 15.5381C13.8134 15.3972 13.8974 15.2034 13.9 15.0001C13.9 14.5897 13.5703 14.2555 13.16 14.2501H6C4.00127 14.1905 2.41369 12.5497 2.42 10.5501V8.38005C2.42 6.3366 4.07655 4.68005 6.12 4.68005H13.21L11.56 6.33005C11.273 6.62836 11.282 7.10278 11.58 7.39005Z" fill="black"/>
</svg>
